<mxfile host="app.diagrams.net" modified="2023-05-21T15:15:32.353Z" agent="Mozilla/5.0 (Windows NT 10.0; Win64; x64) AppleWebKit/537.36 (KHTML, like Gecko) Chrome/113.0.0.0 Safari/537.36" etag="fQMIfaMTwVhemk8sTsHg" version="21.2.9" type="device">
  <diagram name="‫עמוד-1‬" id="oAhi8gNeYEKujm1LLyZF">
    <mxGraphModel dx="2261" dy="764" grid="1" gridSize="10" guides="1" tooltips="1" connect="1" arrows="1" fold="1" page="1" pageScale="1" pageWidth="827" pageHeight="1169" math="0" shadow="0">
      <root>
        <mxCell id="0" />
        <mxCell id="1" parent="0" />
        <mxCell id="7rwLEA_hWrvn7GwZyArS-3" style="edgeStyle=orthogonalEdgeStyle;rounded=0;orthogonalLoop=1;jettySize=auto;html=1;" edge="1" parent="1" source="7rwLEA_hWrvn7GwZyArS-1">
          <mxGeometry relative="1" as="geometry">
            <mxPoint x="418" y="330" as="targetPoint" />
          </mxGeometry>
        </mxCell>
        <mxCell id="7rwLEA_hWrvn7GwZyArS-1" value="data[1,2,3,4]" style="rounded=1;whiteSpace=wrap;html=1;fillColor=#d5e8d4;strokeColor=#82b366;" vertex="1" parent="1">
          <mxGeometry x="270" y="90" width="296" height="110" as="geometry" />
        </mxCell>
        <mxCell id="7rwLEA_hWrvn7GwZyArS-5" style="edgeStyle=orthogonalEdgeStyle;rounded=0;orthogonalLoop=1;jettySize=auto;html=1;entryX=0.5;entryY=0;entryDx=0;entryDy=0;" edge="1" parent="1" source="7rwLEA_hWrvn7GwZyArS-2" target="7rwLEA_hWrvn7GwZyArS-4">
          <mxGeometry relative="1" as="geometry" />
        </mxCell>
        <mxCell id="7rwLEA_hWrvn7GwZyArS-30" style="edgeStyle=orthogonalEdgeStyle;rounded=0;orthogonalLoop=1;jettySize=auto;html=1;entryX=1;entryY=0.5;entryDx=0;entryDy=0;" edge="1" parent="1" source="7rwLEA_hWrvn7GwZyArS-2" target="7rwLEA_hWrvn7GwZyArS-10">
          <mxGeometry relative="1" as="geometry" />
        </mxCell>
        <mxCell id="7rwLEA_hWrvn7GwZyArS-31" style="edgeStyle=orthogonalEdgeStyle;rounded=0;orthogonalLoop=1;jettySize=auto;html=1;entryX=1;entryY=0.4;entryDx=0;entryDy=0;entryPerimeter=0;" edge="1" parent="1" source="7rwLEA_hWrvn7GwZyArS-2" target="7rwLEA_hWrvn7GwZyArS-11">
          <mxGeometry relative="1" as="geometry" />
        </mxCell>
        <mxCell id="7rwLEA_hWrvn7GwZyArS-2" value="" style="sketch=0;outlineConnect=0;fontColor=#232F3E;gradientColor=none;fillColor=#BF0816;strokeColor=none;dashed=0;verticalLabelPosition=bottom;verticalAlign=top;align=center;html=1;fontSize=12;fontStyle=0;aspect=fixed;pointerEvents=1;shape=mxgraph.aws4.filtering_rule;" vertex="1" parent="1">
          <mxGeometry x="302" y="340" width="223" height="223" as="geometry" />
        </mxCell>
        <mxCell id="7rwLEA_hWrvn7GwZyArS-32" style="edgeStyle=orthogonalEdgeStyle;rounded=0;orthogonalLoop=1;jettySize=auto;html=1;" edge="1" parent="1" source="7rwLEA_hWrvn7GwZyArS-4">
          <mxGeometry relative="1" as="geometry">
            <mxPoint x="90" y="700" as="targetPoint" />
          </mxGeometry>
        </mxCell>
        <mxCell id="7rwLEA_hWrvn7GwZyArS-4" value="data[1]" style="rounded=1;whiteSpace=wrap;html=1;fillColor=#fff2cc;strokeColor=#d6b656;" vertex="1" parent="1">
          <mxGeometry x="266" y="640" width="296" height="110" as="geometry" />
        </mxCell>
        <mxCell id="7rwLEA_hWrvn7GwZyArS-12" style="edgeStyle=orthogonalEdgeStyle;rounded=0;orthogonalLoop=1;jettySize=auto;html=1;entryX=0;entryY=0.5;entryDx=0;entryDy=0;" edge="1" parent="1" target="7rwLEA_hWrvn7GwZyArS-10">
          <mxGeometry relative="1" as="geometry">
            <mxPoint x="-200" y="130" as="sourcePoint" />
          </mxGeometry>
        </mxCell>
        <mxCell id="7rwLEA_hWrvn7GwZyArS-10" value="category" style="rounded=1;whiteSpace=wrap;html=1;fillColor=#d5e8d4;strokeColor=#82b366;" vertex="1" parent="1">
          <mxGeometry x="-30" y="100" width="120" height="60" as="geometry" />
        </mxCell>
        <mxCell id="7rwLEA_hWrvn7GwZyArS-11" value="years" style="rounded=1;whiteSpace=wrap;html=1;fillColor=#d5e8d4;strokeColor=#82b366;" vertex="1" parent="1">
          <mxGeometry x="-30" y="170" width="120" height="60" as="geometry" />
        </mxCell>
        <mxCell id="7rwLEA_hWrvn7GwZyArS-13" value="food" style="html=1;shadow=0;dashed=0;shape=mxgraph.bootstrap.rrect;rSize=5;strokeColor=none;strokeWidth=1;fillColor=#6C767D;fontColor=#ffffff;whiteSpace=wrap;align=right;verticalAlign=middle;fontStyle=0;fontSize=14;spacingRight=20;" vertex="1" parent="1">
          <mxGeometry x="-340" y="110" width="140" height="40" as="geometry" />
        </mxCell>
        <mxCell id="7rwLEA_hWrvn7GwZyArS-14" value="" style="shape=triangle;direction=south;fillColor=#ffffff;strokeColor=none;perimeter=none;" vertex="1" parent="7rwLEA_hWrvn7GwZyArS-13">
          <mxGeometry x="1" y="0.5" width="10" height="5" relative="1" as="geometry">
            <mxPoint x="-17" y="-2.5" as="offset" />
          </mxGeometry>
        </mxCell>
        <mxCell id="7rwLEA_hWrvn7GwZyArS-28" style="edgeStyle=orthogonalEdgeStyle;rounded=0;orthogonalLoop=1;jettySize=auto;html=1;entryX=0;entryY=0.5;entryDx=0;entryDy=0;" edge="1" parent="1" source="7rwLEA_hWrvn7GwZyArS-26" target="7rwLEA_hWrvn7GwZyArS-11">
          <mxGeometry relative="1" as="geometry" />
        </mxCell>
        <mxCell id="7rwLEA_hWrvn7GwZyArS-26" value="2022" style="html=1;shadow=0;dashed=0;shape=mxgraph.bootstrap.rrect;rSize=5;strokeColor=none;strokeWidth=1;fillColor=#6C767D;fontColor=#ffffff;whiteSpace=wrap;align=right;verticalAlign=middle;fontStyle=0;fontSize=14;spacingRight=20;" vertex="1" parent="1">
          <mxGeometry x="-340" y="190" width="140" height="40" as="geometry" />
        </mxCell>
        <mxCell id="7rwLEA_hWrvn7GwZyArS-27" value="" style="shape=triangle;direction=south;fillColor=#ffffff;strokeColor=none;perimeter=none;" vertex="1" parent="7rwLEA_hWrvn7GwZyArS-26">
          <mxGeometry x="1" y="0.5" width="10" height="5" relative="1" as="geometry">
            <mxPoint x="-17" y="-2.5" as="offset" />
          </mxGeometry>
        </mxCell>
        <mxCell id="7rwLEA_hWrvn7GwZyArS-34" value="" style="strokeWidth=1;shadow=0;dashed=0;align=center;html=1;shape=mxgraph.mockup.containers.browserWindow;rSize=0;strokeColor=#d6b656;strokeColor2=#008cff;strokeColor3=#c4c4c4;mainText=,;recursiveResize=0;fillColor=#fff2cc;" vertex="1" parent="1">
          <mxGeometry x="-270" y="570" width="350" height="240" as="geometry" />
        </mxCell>
        <mxCell id="7rwLEA_hWrvn7GwZyArS-35" value="Page 1" style="strokeWidth=1;shadow=0;dashed=0;align=center;html=1;shape=mxgraph.mockup.containers.anchor;fontSize=17;fontColor=#666666;align=left;whiteSpace=wrap;" vertex="1" parent="7rwLEA_hWrvn7GwZyArS-34">
          <mxGeometry x="60" y="12" width="110" height="26" as="geometry" />
        </mxCell>
        <mxCell id="7rwLEA_hWrvn7GwZyArS-36" value="https://www.draw.io" style="strokeWidth=1;shadow=0;dashed=0;align=center;html=1;shape=mxgraph.mockup.containers.anchor;rSize=0;fontSize=17;fontColor=#666666;align=left;" vertex="1" parent="7rwLEA_hWrvn7GwZyArS-34">
          <mxGeometry x="130" y="60" width="250" height="26" as="geometry" />
        </mxCell>
      </root>
    </mxGraphModel>
  </diagram>
</mxfile>
